<svg xmlns="http://www.w3.org/2000/svg"  viewBox="0 0 50 50" width="100px" height="100px"><path d="M 25 9 C 16.178 9 9 16.178 9 25 C 9 33.822 16.178 41 25 41 C 33.822 41 41 33.822 41 25 C 41 16.178 33.822 9 25 9 z M 25.021484 10.003906 C 33.291484 10.003906 40.021484 16.732906 40.021484 25.003906 C 40.021484 33.274906 33.292484 40.003906 25.021484 40.003906 C 16.750484 40.003906 10.021484 33.274906 10.021484 25.003906 C 10.021484 16.732906 16.750484 10.003906 25.021484 10.003906 z M 19.332031 16.632812 C 18.557031 16.632812 17.929688 17.262109 17.929688 18.037109 C 17.929688 18.812109 18.557031 19.441406 19.332031 19.441406 C 20.107031 19.441406 20.736328 18.812109 20.736328 18.037109 C 20.736328 17.262109 20.107031 16.632812 19.332031 16.632812 z M 18.869141 21.544922 C 18.350141 21.544922 17.929688 21.965375 17.929688 22.484375 L 17.929688 31.132812 C 17.929687 31.651813 18.350141 32.072266 18.869141 32.072266 L 19.796875 32.072266 C 20.315875 32.072266 20.736328 31.651812 20.736328 31.132812 L 20.736328 22.484375 C 20.736328 21.965375 20.315875 21.544922 19.796875 21.544922 L 18.869141 21.544922 z M 24.472656 21.544922 C 23.960656 21.544922 23.544922 21.960656 23.544922 22.472656 L 23.544922 31.144531 C 23.544922 31.656531 23.960656 32.072266 24.472656 32.072266 L 25.425781 32.072266 C 25.937781 32.072266 26.351562 31.656531 26.351562 31.144531 L 26.351562 26.808594 C 26.351563 25.457594 27.457594 24.353516 28.808594 24.353516 C 30.159594 24.353516 31.263672 25.457594 31.263672 26.808594 L 31.263672 31.144531 C 31.263672 31.656531 31.679406 32.072266 32.191406 32.072266 L 33.144531 32.072266 C 33.656531 32.072266 34.070312 31.656531 34.070312 31.144531 L 34.070312 26.107422 C 34.070312 23.587422 32.029766 21.544922 29.509766 21.544922 C 28.283766 21.544922 27.170563 22.031359 26.351562 22.818359 L 26.351562 22.472656 C 26.351563 21.960656 25.937781 21.544922 25.425781 21.544922 L 24.472656 21.544922 z"/></svg>